<svg width="29" height="30" viewBox="0 0 29 30" fill="none" xmlns="http://www.w3.org/2000/svg">
<path d="M8.71429 29H4.85714C2.7269 29 1 27.3684 1 25.3556V12.454C1 11.39 1.49204 10.3793 2.34695 9.68691L11.9898 1.87737C13.4343 0.707542 15.5657 0.707542 17.0102 1.87737L26.6531 9.68691C27.508 10.3793 28 11.39 28 12.454V25.3556C28 27.3684 26.2732 29 24.1429 29H20.2857M8.71429 29V18.0667C8.71429 17.0602 9.57775 16.2444 10.6429 16.2444H18.3571C19.4223 16.2444 20.2857 17.0602 20.2857 18.0667V29M8.71429 29H20.2857" stroke="white" stroke-width="1.5" stroke-linecap="round" stroke-linejoin="round"/>
</svg>
